<svg xmlns="http://www.w3.org/2000/svg" width="158.393" height="159.716" viewBox="0 0 158.393 159.716">
  <g id="icp-logo-black" transform="translate(-13.238 -14)">
    <path id="Path_36835" data-name="Path 36835" d="M92.45,129.08H44.03v44.63h96.84V129.08Z" fill="#f36e29"/>
    <path id="Path_36836" data-name="Path 36836" d="M119.57,14.02H65.34V58.65h54.23" fill="#f36e29"/>
    <path id="Path_36837" data-name="Path 36837" d="M62.36,14H45.7c-3.89,2.43-4.19,11.49-4.19,11.49V48a60,60,0,0,1-.79,9.44C39.8,67,18.26,108.35,15.4,112.8a15.15,15.15,0,0,0-1.82,11l3.5,14.3a79.639,79.639,0,0,1,1.17,9.63v17.1c.88,9.44,4.77,8.88,4.77,8.88H40.94V127.86l14-25.6S61.89,86.43,62.33,73v-.1Z" fill="#f36e29"/>
    <path id="Path_36838" data-name="Path 36838" d="M169.5,112.8c-2.86-4.46-24.4-45.79-25.33-55.37a59.9,59.9,0,0,1-.79-9.44V25.46S143.09,16.4,139.2,14H122.54V73.11c.44,13.38,7.37,29.21,7.37,29.21l14,25.6V173.7h17.92s3.89.56,4.77-8.88v-17.1a79.76,79.76,0,0,1,1.17-9.63l3.51-14.3a15.15,15.15,0,0,0-1.78-10.99Z" fill="#f36e29"/>
  </g>
</svg>
