<svg id="Layer_1" data-name="Layer 1" xmlns="http://www.w3.org/2000/svg" viewBox="0 0 543.41 187.83"><defs><style>.cls-1{fill:#000;}.cls-2{fill:#f36e29;}</style></defs><title>Artboard 2three</title><path class="cls-1" d="M232.38,170.85q0,3.72-3.57,3.72H193.32q-3.57,0-3.57-3.72V17.71q0-3.72,3.57-3.72h35.48q3.57,0,3.57,3.72Z"/><polygon class="cls-2" points="92.45 129.08 44.03 129.08 44.03 173.71 92.45 173.71 140.87 173.71 140.87 129.08 92.45 129.08"/><polyline class="cls-2" points="119.57 14.02 92.45 14.02 65.34 14.02 65.34 58.65 92.45 58.65 119.57 58.65"/><path class="cls-2" d="M62.36,14H45.7c-3.89,2.43-4.19,11.49-4.19,11.49V48a60,60,0,0,1-.79,9.44C39.8,67,18.26,108.35,15.4,112.8a15.15,15.15,0,0,0-1.82,11l3.5,14.3a79.64,79.64,0,0,1,1.17,9.63v17.1c.88,9.44,4.77,8.88,4.77,8.88H40.94V127.86l14-25.6S61.89,86.43,62.33,73l0-.1Z"/><path class="cls-2" d="M169.5,112.8c-2.86-4.46-24.4-45.79-25.33-55.37a59.9,59.9,0,0,1-.79-9.44V25.46S143.09,16.4,139.2,14H122.54v59l0,.11c.44,13.38,7.37,29.21,7.37,29.21l14,25.6V173.7h17.92s3.89.56,4.77-8.88v-17.1a79.76,79.76,0,0,1,1.17-9.63l3.51-14.3A15.15,15.15,0,0,0,169.5,112.8Z"/><path class="cls-1" d="M314.11,49.57h53.15V14H307.53c-20.08,1-29.29,14.52-29.29,14.52a463.43,463.43,0,0,0-34.36,42c-3.3,6.07-3.87,12.58-3.82,17.85a34.86,34.86,0,0,0,4.37,17.22s15.7,31.25,33.8,53.63c0,0,9.22,13.57,29.29,14.52h59.73V138.1H314.11s-8.23,0-11.85-4.28c0,0-18.47-27.31-19.12-34.22a31.23,31.23,0,0,1-.23-11.28h0c.75-9.72,19.39-34.47,19.39-34.47C305.88,49.57,314.11,49.57,314.11,49.57Z"/><path class="cls-1" d="M422.61,170.85c0,2.48-1.3,3.72-3.88,3.72H380.26q-3.88,0-3.87-3.72V17.71q0-3.72,3.87-3.72h38.47c2.58,0,3.88,1.24,3.88,3.72Z"/><path class="cls-1" d="M464.19,92.44H426.08v35.49h53.35c15.53-.68,22.65-10.35,22.65-10.35a337,337,0,0,0,26.56-29.92,24.06,24.06,0,0,0,3-12.72,23.34,23.34,0,0,0-3.38-12.27s-12.14-22.28-26.13-38.24c0,0-7.12-9.67-22.65-10.35H426.08V49.49h38.11s6.58.19,9.63,2.8c0,0,13.81,9.68,14.32,14.61a20.53,20.53,0,0,1,.18,8h0c-.58,6.93-14.53,14.74-14.53,14.74C471.89,91.34,464.19,92.44,464.19,92.44Z"/></svg>