<svg xmlns="http://www.w3.org/2000/svg" width="61.716" height="88.974" viewBox="0 0 61.716 88.974">
  <g id="Group_34871" data-name="Group 34871" transform="translate(-1440 -5800.026)">
    <path id="Path_4290" data-name="Path 4290" d="M166.858,0a30.863,30.863,0,0,0-26.119,47.3l26.119,41.677L192.977,47.3A30.863,30.863,0,0,0,166.858,0Zm0,50.144a19.286,19.286,0,1,1,19.286-19.286A19.309,19.309,0,0,1,166.858,50.144Zm0,0" transform="translate(1304 5800.026)" fill="#f36e29"/>
    <circle id="Ellipse_100" data-name="Ellipse 100" cx="20.5" cy="20.5" r="20.5" transform="translate(1450 5811)" fill="#fff"/>
    <g id="icp-logo-black" transform="translate(1443.92 5802.885)">
      <path id="Path_36835" data-name="Path 36835" d="M52.406,129.08H44.03v7.72H60.782v-7.72Z" transform="translate(-25.466 -95.173)" fill="#f36e29"/>
      <path id="Path_36836" data-name="Path 36836" d="M74.721,14.02H65.34v7.72h9.381" transform="translate(-43.089 -0.017)" fill="#f36e29"/>
      <path id="Path_36837" data-name="Path 36837" d="M21.735,14H18.853c-.673.42-.725,1.988-.725,1.988v3.894a10.379,10.379,0,0,1-.137,1.633c-.159,1.654-3.885,8.806-4.38,9.576a2.621,2.621,0,0,0-.315,1.9l.605,2.474a13.776,13.776,0,0,1,.2,1.666v2.958c.152,1.633.825,1.536.825,1.536h3.1V33.7l2.422-4.428a16.51,16.51,0,0,0,1.278-5.061v-.017Z" fill="#f36e29"/>
      <path id="Path_36838" data-name="Path 36838" d="M130.663,31.091c-.495-.771-4.221-7.921-4.382-9.578a10.363,10.363,0,0,1-.137-1.633v-3.9s-.05-1.567-.723-1.982H122.54V24.225a16.547,16.547,0,0,0,1.275,5.053l2.422,4.428v7.919h3.1s.673.1.825-1.536V37.131a13.8,13.8,0,0,1,.2-1.666l.607-2.474a2.621,2.621,0,0,0-.308-1.9Z" transform="translate(-90.395)" fill="#f36e29"/>
    </g>
  </g>
</svg>
