<?xml version="1.0" encoding="UTF-8"?>
<svg id="Layer_1" data-name="Layer 1" xmlns="http://www.w3.org/2000/svg" xmlns:xlink="http://www.w3.org/1999/xlink" viewBox="0 0 250 250">
  <defs>
    <style>
      .cls-1 {
        fill: url(#radial-gradient);
        stroke: #41d6ec;
        stroke-width: 9px;
      }

      .cls-1, .cls-2, .cls-3 {
        stroke-miterlimit: 10;
      }

      .cls-4, .cls-2 {
        fill: #fff;
      }

      .cls-2 {
        stroke: url(#linear-gradient);
      }

      .cls-3 {
        fill: #e60292;
        stroke: #000;
      }
    </style>
    <radialGradient id="radial-gradient" cx="124.1" cy="128.44" fx="124.1" fy="128.44" r="67.02" gradientTransform="translate(127.17 -50.14) rotate(45)" gradientUnits="userSpaceOnUse">
      <stop offset="0" stop-color="#fff"/>
      <stop offset=".03" stop-color="#f9f8f8" stop-opacity="1"/>
      <stop offset=".07" stop-color="#e9e7e7" stop-opacity=".99"/>
      <stop offset=".12" stop-color="#cecbcb" stop-opacity=".98"/>
      <stop offset=".17" stop-color="#a9a4a4" stop-opacity=".96"/>
      <stop offset=".23" stop-color="#7a7272" stop-opacity=".94"/>
      <stop offset=".29" stop-color="#413535" stop-opacity=".92"/>
      <stop offset=".34" stop-color="#0f0000" stop-opacity=".9"/>
    </radialGradient>
    <linearGradient id="linear-gradient" x1="106.43" y1="124.9" x2="140.3" y2="124.9" gradientUnits="userSpaceOnUse">
      <stop offset="0" stop-color="#301712"/>
      <stop offset=".34" stop-color="#29120e"/>
      <stop offset=".8" stop-color="#190605"/>
      <stop offset="1" stop-color="#0f0000"/>
    </linearGradient>
  </defs>
  <g>
    <g>
      <path class="cls-4" d="M86.76,45.82l2.91-1.43,2.76,5.62c-.95,1.89-2.74,3.53-4.71,4.5-4.33,2.13-8.99.71-11.04-3.47s-.33-8.73,4.06-10.89c2.42-1.19,4.84-1.35,6.94-.44l-1.11,2.91c-1.53-.58-2.93-.5-4.33.19-2.68,1.32-3.62,4.02-2.33,6.65,1.27,2.59,4.01,3.53,6.65,2.24.87-.43,1.6-.98,2.19-1.81l-1.99-4.06Z"/>
      <path class="cls-4" d="M106.62,47.9l-3.89-3.48-.17.04-3.01.73,1.01,4.18-3.45.84-3.62-15.01,6.46-1.56c3.99-.96,6.98.51,7.79,3.88.54,2.25-.19,4.17-1.93,5.48l4.51,4.01-3.71.9ZM100.44,36.51l-2.81.68,1.26,5.23,2.81-.68c2.11-.51,2.94-1.75,2.54-3.38-.4-1.65-1.7-2.36-3.81-1.85Z"/>
      <path class="cls-4" d="M113.44,39.86l-.15-8.64,3.55-.06.15,8.51c.05,2.93,1.34,4.12,3.49,4.09,2.17-.04,3.4-1.27,3.35-4.21l-.15-8.51,3.51-.06.15,8.64c.08,4.54-2.47,7.1-6.83,7.18-4.36.08-6.99-2.39-7.07-6.93Z"/>
      <path class="cls-4" d="M146.83,39.92c-.69,3.37-3.63,4.95-7.65,4.13l-3.03-.62-.85,4.17-3.48-.71,3.1-15.12,6.51,1.33c4.02.82,6.1,3.43,5.41,6.82ZM143.3,39.2c.34-1.66-.53-2.86-2.66-3.29l-2.84-.58-1.08,5.25,2.84.58c2.13.44,3.4-.32,3.74-1.96Z"/>
      <path class="cls-4" d="M150.61,43.22c1.91-4.17,6.56-5.77,10.96-3.75,4.38,2.01,6.22,6.57,4.3,10.76-1.92,4.19-6.58,5.76-10.96,3.75-4.4-2.02-6.22-6.59-4.3-10.76ZM162.61,48.73c1.22-2.66.19-5.35-2.3-6.49-2.49-1.14-5.2-.18-6.43,2.48s-.19,5.35,2.3,6.49c2.49,1.14,5.2.18,6.43-2.48Z"/>
    </g>
    <g>
      <path class="cls-4" d="M41.26,150.3l-7.05,1.68c-2.65.63-4.15-.36-4.75-2.89-.34-1.43-.21-2.91.4-3.9l.67.27c-.54.96-.69,2.19-.39,3.45.5,2.09,1.7,2.84,3.81,2.34l1.33-.32c-1.31-.37-2.24-1.42-2.58-2.84-.53-2.23.65-4.29,2.91-4.83s4.23.77,4.76,3c.35,1.45-.03,2.82-1.06,3.74l1.79-.43.17.72ZM37.32,150.46c1.86-.44,2.82-2.11,2.38-3.97-.44-1.85-2.05-2.9-3.91-2.46-1.86.44-2.84,2.11-2.4,3.96.45,1.87,2.07,2.91,3.93,2.47Z"/>
      <path class="cls-4" d="M44.09,158.28l-.72.26c-.02-.06-.03-.12-.05-.18-.61-1.69-2.1-2.28-3.99-1.6l-3.98,1.45-.26-.73,7.64-2.77.25.7-1.67.61c1.28.06,2.26.84,2.78,2.27Z"/>
      <path class="cls-4" d="M48.55,168.01l-7.28,3.61-.33-.67,1.56-.77c-1.25.03-2.34-.65-2.97-1.93-.92-1.84-.45-3.54,1.58-4.55l4.25-2.11.34.69-4.2,2.08c-1.65.82-2.08,2.12-1.33,3.63.81,1.64,2.42,2.1,4.15,1.25l3.88-1.92.34.69Z"/>
      <path class="cls-4" d="M52.1,181.01c-2.02,1.38-4.37.9-5.66-.98-.8-1.18-.91-2.57-.27-3.79l-4.02,2.75-.44-.64,9.2-6.28.42.61-1.58,1.08c1.39-.18,2.68.42,3.5,1.62,1.28,1.88.85,4.26-1.15,5.62ZM51.67,180.37c1.68-1.15,2.03-3.09.99-4.63-1.05-1.53-2.98-1.91-4.66-.76-1.68,1.15-2.04,3.08-.99,4.62s2.99,1.92,4.67.77Z"/>
      <path class="cls-4" d="M54.26,183.7c1.79-1.61,4.21-1.48,5.77.25,1.55,1.73,1.43,4.15-.36,5.76-1.79,1.61-4.21,1.48-5.77-.25-1.55-1.73-1.43-4.15.36-5.76ZM59.13,189.12c1.52-1.36,1.61-3.33.37-4.71-1.24-1.38-3.2-1.49-4.72-.13s-1.61,3.33-.37,4.71c1.24,1.38,3.2,1.49,4.72.13Z"/>
      <path class="cls-4" d="M73.66,200.68l-2.95,3.72-.61-.48,2.91-3.67c1.14-1.44,1-2.78-.24-3.76-1.43-1.13-3.08-.87-4.28.64l-2.69,3.39-.61-.48,2.91-3.67c1.14-1.44,1-2.78-.24-3.76-1.43-1.13-3.08-.87-4.28.64l-2.69,3.39-.61-.48,5.04-6.37.58.46-1.08,1.37c1.12-.56,2.4-.41,3.55.51,1.14.9,1.56,2.09,1.1,3.37,1.15-.6,2.55-.48,3.78.49,1.53,1.21,1.8,2.91.39,4.69Z"/>
      <path class="cls-4" d="M79.79,200.28l.67.39-4.12,7-.67-.39,4.12-7ZM80.9,197.91c.17-.29.56-.41.87-.23s.4.56.23.86c-.18.31-.56.41-.87.23s-.41-.56-.23-.86Z"/>
      <path class="cls-4" d="M88.49,208.1l-2.19,4.66-.67-.32.62-1.31c-.86.63-2,.73-3.28.13-1.64-.77-2.24-2.08-1.65-3.34.52-1.11,1.67-1.73,3.7-.77l2.51,1.18.28-.59c.64-1.37.24-2.45-1.19-3.12-1.01-.47-2.1-.52-2.96-.26l-.11-.67c1.03-.3,2.28-.2,3.42.34,1.81.85,2.38,2.25,1.53,4.07ZM86.62,210.26l.65-1.38-2.49-1.17c-1.51-.71-2.34-.33-2.74.52-.45.96.01,1.9,1.3,2.5,1.23.58,2.37.39,3.28-.47Z"/>
      <path class="cls-4" d="M105.9,214.12l-1.27,4.57-.75-.21,1.25-4.51c.49-1.77-.16-2.95-1.68-3.38-1.76-.49-3.18.39-3.69,2.25l-1.16,4.17-.75-.21,1.25-4.51c.49-1.77-.16-2.95-1.68-3.38-1.76-.49-3.18.39-3.69,2.25l-1.15,4.17-.75-.21,2.17-7.83.72.2-.47,1.68c.81-.95,2.05-1.3,3.47-.91,1.4.39,2.25,1.32,2.33,2.68.82-1,2.17-1.43,3.67-1.02,1.88.52,2.79,1.99,2.19,4.18Z"/>
      <path class="cls-4" d="M111.41,211.35l.77.1-1.07,8.05-.77-.1,1.07-8.05ZM111.5,208.74c.04-.34.36-.6.71-.55.35.05.59.36.55.7-.05.35-.36.6-.71.55-.35-.05-.59-.36-.55-.7Z"/>
      <path class="cls-4" d="M130.09,215.5l.02,4.74h-.77s-.02-4.68-.02-4.68c0-1.84-.95-2.8-2.53-2.79-1.83,0-2.95,1.24-2.94,3.17l.02,4.33h-.77s-.02-4.68-.02-4.68c0-1.84-.95-2.8-2.53-2.79-1.83,0-2.95,1.24-2.95,3.17l.02,4.33h-.77s-.03-8.12-.03-8.12h.74s0,1.74,0,1.74c.52-1.14,1.62-1.81,3.09-1.82,1.46,0,2.53.66,2.96,1.95.52-1.18,1.69-1.97,3.26-1.97,1.95,0,3.22,1.16,3.23,3.43Z"/>
      <path class="cls-4" d="M141.68,210.15l1.45,7.99-.73.13-.31-1.71c-.31,1.21-1.28,2.07-2.68,2.32-2.03.37-3.53-.55-3.94-2.78l-.85-4.67.76-.14.84,4.61c.33,1.81,1.46,2.58,3.12,2.28,1.8-.33,2.69-1.74,2.35-3.64l-.77-4.26.76-.14Z"/>
      <path class="cls-4" d="M147.15,216.13l.16-.7c.75.32,1.93.43,3.07.07,1.63-.51,2.1-1.29,1.82-2.16-.7-2.26-5.3,1-6.25-2.05-.37-1.17.31-2.43,2.27-3.04.98-.3,2.13-.34,2.88-.06l-.16.7c-.8-.27-1.71-.24-2.54.02-1.51.47-1.98,1.3-1.72,2.13.73,2.33,5.33-.91,6.25,2.05.39,1.26-.42,2.46-2.38,3.07-1.27.39-2.62.34-3.4-.04Z"/>
      <path class="cls-4" d="M153.17,203.82c-.13-.32.02-.7.35-.83s.69.02.82.34c.13.33-.02.7-.35.83-.33.13-.69-.02-.82-.34ZM154.38,206.13l.72-.29,3.05,7.53-.72.29-3.05-7.53Z"/>
      <path class="cls-4" d="M160.39,208.03c-1.11-2.16-.36-4.46,1.75-5.54,1.14-.59,2.36-.65,3.41-.07l-.32.64c-.9-.46-1.88-.4-2.77.06-1.69.87-2.3,2.73-1.36,4.55.94,1.83,2.81,2.41,4.5,1.54.9-.46,1.52-1.22,1.66-2.22l.7.11c-.14,1.18-.9,2.14-2.04,2.73-2.11,1.08-4.42.35-5.52-1.8Z"/>
      <path class="cls-4" d="M171.62,205.8c-.2-.32-.1-.71.2-.9.3-.19.7-.11.9.21.2.32.11.72-.19.91-.3.19-.71.1-.91-.22Z"/>
      <path class="cls-4" d="M173.42,200.57c-1.46-1.94-1.1-4.33.79-5.75,1.03-.77,2.22-1.04,3.35-.65l-.21.68c-.97-.31-1.92-.08-2.72.53-1.52,1.14-1.81,3.08-.58,4.72,1.23,1.64,3.17,1.9,4.69.76.8-.6,1.29-1.46,1.26-2.47h.71c.06,1.18-.53,2.26-1.55,3.03-1.89,1.42-4.3,1.09-5.75-.84Z"/>
      <path class="cls-4" d="M181.58,194.23c-1.67-1.74-1.62-4.17.06-5.78s4.1-1.56,5.77.18c1.67,1.74,1.62,4.17-.06,5.78-1.67,1.61-4.1,1.56-5.77-.18ZM186.84,189.18c-1.41-1.47-3.38-1.5-4.72-.22-1.34,1.29-1.38,3.25.03,4.72,1.41,1.47,3.38,1.51,4.72.22s1.38-3.25-.03-4.72Z"/>
      <path class="cls-4" d="M197.91,174.28l3.82,2.82-.46.62-3.77-2.78c-1.48-1.09-2.81-.91-3.75.36-1.09,1.47-.77,3.11.79,4.25l3.48,2.57-.46.62-3.77-2.78c-1.48-1.09-2.81-.91-3.75.36-1.08,1.47-.77,3.11.79,4.25l3.48,2.57-.46.62-6.54-4.83.44-.6,1.4,1.04c-.6-1.1-.49-2.38.39-3.56.86-1.17,2.04-1.63,3.33-1.21-.64-1.12-.57-2.53.36-3.79,1.16-1.57,2.85-1.89,4.68-.54Z"/>
    </g>
  </g>
  <g>
    <circle class="cls-1" cx="124.1" cy="128.44" r="67.02" transform="translate(-54.47 125.37) rotate(-45)"/>
    <circle class="cls-2" cx="123.36" cy="124.9" r="16.43"/>
    <g>
      <path class="cls-3" d="M62.5,136.25c-.22-.66,3.09-12.68,6.95-24.14,2.09-6.72,4.63-14.44,7.5-22.93-3.2,2.31-8.6,10.91-13.23,18.74-2.65,4.63-5.4,9.7-8.27,15.1-1.32-.77-2.76-1.87-3.53-3.64-.33-.99,1.76-8.27,3.86-15.65,1.21-4.19,2.65-8.93,4.3-14.22-2.76,1.54-11.68,11.8-15.21,15.98-3.53,4.08-11.24,18.08-12.13,19.51-.22.55-.55.77-.88.77-.55,0-1.43-.99-2.65-3.09-1.87-2.87,12.24-32.63,15.76-38.36,1.65-2.54,2.32-3.64,1.54-3.64-.99,0-4.63,2.21-13.01,6.06-3.86,1.76-6.39,2.42-8.16,2.42-2.54,0-3.31-1.21-3.64-2.42-.22-.77-.22-1.54,0-2.43,3.97,0,10.14-3.64,16.76-7.5,5.84-3.53,16.76-12.13,19.4-13.89.33-.11.55-.22.66-.22.22,0,.33,0,.44.11,1.43.77,2.2,1.87,2.54,2.76.33.55.44,1.21.55,1.76-1.87,1.87-5.18,7.5-7.94,12.79-1.65,2.98-3.31,6.28-5.07,9.92,2.98-2.2,19.18-19.95,22.6-23.81.22-.22.44-.33.77-.33.11,0,.22.11.55.22,2.09,1.21,2.42,3.2,2.42,4.85,0,.88-1.43,4.3-2.76,7.72-.88,1.87-1.87,3.97-2.87,6.28,1.65-1.65,17.2-21.38,20.28-25.35.33-.33.55-.44.88-.44.11,0,.22.11.55.22,1.65.99,3.2,3.64,3.97,4.96.33.55.33,1.1,0,1.76-10.58,20.72-25.35,66.47-27.45,73.3-.22.55-.55.77-.88.77-.11,0-.22-.11-.33-.11-1.76-.77-3.53-2.54-4.3-3.86Z"/>
      <path class="cls-3" d="M102.62,97.55c.11-.11.22-.11.33-.11l7.05-.11c.33,0,.33.11.11.33-1.21,1.76-9.15,16.2-16.65,19.07-.66.33-1.43.44-2.2.44-3.2,0-5.84-2.54-6.17-7.27-.33-7.83,2.87-13.34,5.07-17.64,1.65-3.2,3.53-7.39,4.41-9.26.11-.33.44-.55.77-.55.11,0,.33.11.44.22,1.32.99,3.97,3.53,4.74,5.18-1.76,3.2-3.2,6.17-4.41,9.04-2.09,4.96-3.97,10.58-2.76,13.78l9.26-13.12ZM98.99,79.04l2.54,2.87c.11.22.33.33.55.33.11,0,.33-.11.66-.44,1.98-2.65,9.37-11.57,11.13-12.46-.33-.77-.66-1.54-1.1-2.21-.77-1.21-1.76-2.2-3.2-2.2-.55,0-1.32-.11-2.98,1.98-.88,1.1-1.76,2.31-2.76,3.64-1.98,2.76-4.08,5.73-4.96,7.05-.33.44-.22.88.11,1.43Z"/>
      <path class="cls-3" d="M131.39,97.66h6.83c.33,0,.33.11.11.33-1.21,2.21-10.14,15.65-14.55,16.53-.22.11-.55.11-1.1.11-2.09,0-3.53-1.1-4.52-2.31-.55-.66-1.1-1.43-1.43-2.32-.77,1.32-1.76,2.43-2.76,3.42-1.65,1.76-4.08,3.53-6.72,3.53-6.28.33-10.14-10.58-5.95-17.09,3.86-6.5,8.16-14.99,15.87-18.19,1.43-.55,2.65-.88,3.64-.88,3.42,0,5.29,2.87,6.72,6.94-.33-.33-.66-.55-.99-.77-.77-.55-1.65-.77-2.87-.77-2.65,0-6.28,1.54-10.58,8.49-8.49,13.56-7.5,15.87-7.05,16.31.55.44,4.41-2.76,7.83-8.93,3.2-6.17,7.94-12.68,9.04-12.68,1.21,0,3.97,1.87,5.18,4.85-1.32,2.31-2.43,4.41-3.42,6.28-1.65,3.2-2.76,6.72-1.76,7.61,1.21.88,6.06-7.83,7.94-10.25.11-.11.33-.22.55-.22Z"/>
      <path class="cls-3" d="M130.4,98.99c-.22,0-.22-.11-.11-.33,2.09-3.86,14.22-21.61,17.86-21.61,4.52,1.21,1.43,9.37,3.2,9.37,3.31,0,5.51-9.04,7.61-8.49,2.09.77,3.75,1.87,3.31,4.85-.33,1.65-.33,3.31-.66,4.74-.11.88-.33,1.76-.44,2.54,1.43-1.65,2.76-3.42,4.19-5.07,2.2-2.98,4.74-6.61,6.39-9.59.33-.33.55-.44.77-.44.11,0,.22.11.55.22,1.43,1.21,4.3,3.31,3.97,4.74-.44,1.98-7.39,23.37-5.29,23.81,1.87.22,5.84-3.53,8.71-7.27,1.87-2.09,3.75-4.63,5.84-7.5l1.54,4.96c.33.99.44,2.32.11,3.09-2.32,4.63-12.02,15.98-19.18,16.31-5.84,0-4.74-8.05-3.86-11.57-.88.66-1.76,1.54-2.65,2.76-1.65,2.09-3.53,5.07-5.29,9.92-.33.99-1.1,1.43-2.09,1.43-.33,0-.66,0-.77-.11-2.09-.99-4.74-2.76-3.75-5.84,1.43-4.85,2.32-8.82,1.76-10.69-.99,1.54-1.87,3.09-2.76,4.63-1.65,2.54-3.42,5.84-4.85,8.38-.33.66-.88.99-1.76.99-.44,0-.77-.11-.99-.22-1.87-1.21-4.52-3.53-2.43-7.05,3.64-6.61,5.73-11.24,4.52-15.1-.88,1.1-1.65,2.21-2.42,3.2-1.32,1.65-2.87,3.64-3.64,4.63-.11.22-.22.33-.44.33h-6.94Z"/>
      <path class="cls-3" d="M195.11,97.55c.11-.11.22-.11.33-.11l7.05-.11c.33,0,.33.11.11.33-1.21,1.76-9.15,16.2-16.65,19.07-.66.33-1.43.44-2.2.44-3.2,0-5.84-2.54-6.17-7.27-.33-7.83,2.87-13.34,5.07-17.64,1.65-3.2,3.53-7.39,4.41-9.26.11-.33.44-.55.77-.55.11,0,.33.11.44.22,1.32.99,3.97,3.53,4.74,5.18-1.76,3.2-3.2,6.17-4.41,9.04-2.09,4.96-3.97,10.58-2.76,13.78l9.26-13.12ZM191.47,79.04l2.54,2.87c.11.22.33.33.55.33.11,0,.33-.11.66-.44,1.98-2.65,9.37-11.57,11.13-12.46-.33-.77-.66-1.54-1.1-2.21-.77-1.21-1.76-2.2-3.2-2.2-.55,0-1.32-.11-2.98,1.98-.88,1.1-1.76,2.31-2.76,3.64-1.98,2.76-4.08,5.73-4.96,7.05-.33.44-.22.88.11,1.43Z"/>
    </g>
    <g>
      <path class="cls-3" d="M95.29,192.48c-.22-.66,3.09-12.68,6.95-24.14,2.09-6.72,4.63-14.44,7.5-22.93-3.2,2.32-8.6,10.91-13.23,18.74-2.65,4.63-5.4,9.7-8.27,15.1-1.32-.77-2.76-1.87-3.53-3.64-.33-.99,1.76-8.27,3.86-15.65,1.21-4.19,2.65-8.93,4.3-14.22-2.76,1.54-11.68,11.79-15.21,15.98-3.53,4.08-11.24,18.08-12.13,19.51-.22.55-.55.77-.88.77-.55,0-1.43-.99-2.65-3.09-1.87-2.87,12.24-32.63,15.76-38.36,1.65-2.54,2.32-3.64,1.54-3.64-.99,0-4.63,2.2-13.01,6.06-3.86,1.76-6.39,2.42-8.16,2.42-2.54,0-3.31-1.21-3.64-2.42-.22-.77-.22-1.54,0-2.42,3.97,0,10.14-3.64,16.76-7.5,5.84-3.53,16.76-12.13,19.4-13.89.33-.11.55-.22.66-.22.22,0,.33,0,.44.11,1.43.77,2.2,1.87,2.54,2.76.33.55.44,1.21.55,1.76-1.87,1.87-5.18,7.5-7.94,12.79-1.65,2.98-3.31,6.28-5.07,9.92,2.98-2.21,19.18-19.95,22.6-23.81.22-.22.44-.33.77-.33.11,0,.22.11.55.22,2.09,1.21,2.42,3.2,2.42,4.85,0,.88-1.43,4.3-2.76,7.72-.88,1.87-1.87,3.97-2.87,6.28,1.65-1.65,17.2-21.39,20.28-25.35.33-.33.55-.44.88-.44.11,0,.22.11.55.22,1.65.99,3.2,3.64,3.97,4.96.33.55.33,1.1,0,1.76-10.58,20.72-25.35,66.47-27.45,73.31-.22.55-.55.77-.88.77-.11,0-.22-.11-.33-.11-1.76-.77-3.53-2.54-4.3-3.86Z"/>
      <path class="cls-3" d="M126.71,143.98c2.43-2.98,4.19-4.41,5.29-4.41.88,0,1.76.77,2.65,2.43.77,1.65,1.32,2.98,1.32,3.97,0,.77-.44,1.65-1.21,2.43-6.5,6.61-8.71,9.92-8.71,12.57,0,.99.44,1.43,1.43,1.43,1.65,0,3.2-.77,7.05-4.74,3.86-3.86,7.17-7.94,10.36-12.24l1.21-1.43c2.42-2.98,4.19-4.41,5.29-4.41,1.87,0,3.86,4.74,3.86,6.39,0,.66-.33,1.43-1.1,2.43l-1.1,1.1c-1.65,1.65-3.53,3.2-5.29,5.73-1.65,2.09-2.87,3.31-2.54,5.18.22,1.43.66,2.09,1.32,2.09,2.32,0,6.39-7.5,7.05-8.16.22-.22.44-.33.55-.33h6.83c.33,0,.22.33.11.44-1.21,2.21-10.03,15.32-14.33,16.2-.33.11-.66.11-1.1.11-4.85,0-6.94-5.29-6.94-9.81l.11-1.65c-3.53,4.41-4.85,6.94-8.05,9.26-1.32,1.1-2.65,1.65-4.08,1.65-3.97,0-7.39-7.28-7.72-10.8-.33-3.86,2.43-8.93,7.72-15.43Z"/>
      <path class="cls-3" d="M150.19,159.41c3.53-5.29,11.13-15.43,14.11-19.84.33-.33.44-.55.55-.88.33-.44.44-.77.55-.88.22-.22.55-.33,1.1-.33s1.21.11,1.65.11c2.2,0,7.39,2.87,7.39,5.4,0,.22-.11.44-.22.55,0,.11,0,.22-.11.22v.22c-.44,1.65-.55,3.2-.55,4.96,0,3.86.22,7.94.22,11.9,3.42-1.21,6.94-3.2,10.8-8.38l6.95,1.1c-7.05,10.25-16.76,17.97-29.65,19.18-6.17,0-8.93-5.18-10.14-10.58h-.88c-1.1,0-1.76-.55-1.98-1.65-.11-.33-.11-.77.22-1.1ZM166.62,162.5c-.33-4.3-.88-8.16-1.21-12.46-2.54,3.42-5.07,6.61-8.05,9.81,1.43,2.31,4.3,5.73,6.83,5.73,1.65,0,2.43-.99,2.43-2.65v-.44Z"/>
      <path class="cls-3" d="M199.91,153.79c.11-.11.22-.11.33-.11l7.05-.11c.33,0,.33.11.11.33-1.21,1.76-9.15,16.2-16.65,19.07-.66.33-1.43.44-2.2.44-3.2,0-5.84-2.54-6.17-7.28-.33-7.83,2.87-13.34,5.07-17.64,1.65-3.2,3.53-7.39,4.41-9.26.11-.33.44-.55.77-.55.11,0,.33.11.44.22,1.32.99,3.97,3.53,4.74,5.18-1.76,3.2-3.2,6.17-4.41,9.04-2.09,4.96-3.97,10.58-2.76,13.78l9.26-13.12ZM196.27,135.27l2.54,2.87c.11.22.33.33.55.33.11,0,.33-.11.66-.44,1.98-2.65,9.37-11.57,11.13-12.46-.33-.77-.66-1.54-1.1-2.2-.77-1.21-1.76-2.21-3.2-2.21-.55,0-1.32-.11-2.98,1.98-.88,1.1-1.76,2.31-2.76,3.64-1.98,2.76-4.08,5.73-4.96,7.05-.33.44-.22.88.11,1.43Z"/>
      <path class="cls-3" d="M197.92,159.96c0-7.39,7.61-20.83,15.87-20.83,2.2,0,4.3,1.21,6.28,3.75l1.21,1.54c1.65,2.2,3.09,3.64,3.09,5.29,0,4.08-5.84,7.83-9.59,7.83-1.43,0-2.09-.33-2.09-.99,0-.33.33-.77,1.1-1.32,1.65-.99,2.98-2.76,4.19-5.51.99-2.43.88-3.64-.55-3.64-2.09,0-4.74,1.98-7.94,5.84-3.2,3.86-4.85,7.28-4.85,10.25,0,2.32,1.87,4.19,4.08,4.19,8.82-1.21,12.9-7.61,17.86-13.78l6.72,1.1c-5.07,8.6-15.54,18.41-24.03,18.41-2.76,0-5.07-1.43-5.84-2.21-.55-.55-2.87-3.2-2.87-3.2-1.76-1.98-2.65-4.19-2.65-6.72Z"/>
    </g>
  </g>
</svg>